<svg 
  viewBox="0 0 100 100" 
  fill="none" 
  xmlns="http://www.w3.org/2000/svg"
>
  <path d="M48 35 C48 35 30 15 10 25 C5 27.5 2 40 12 48 C18 52.8 30 45 48 52" fill="#111111"/>
  <path d="M52 35 C52 35 70 15 90 25 C95 27.5 98 40 88 48 C82 52.8 70 45 52 52" fill="#111111"/>
  <path d="M48 54 C35 54 20 58 18 70 C17 76 22 85 30 85 C38 85 45 70 48 60" fill="#111111"/>
  <path d="M52 54 C65 54 80 58 82 70 C83 76 78 85 70 85 C62 85 55 70 52 60" fill="#111111"/>
  <path d="M48 30 L52 30 L53 65 L47 65 Z" fill="#111111"/>
  <path d="M48 30 Q40 15 35 20" stroke="#111111" stroke-width="2" fill="none" stroke-linecap="round"/>
  <path d="M52 30 Q60 15 65 20" stroke="#111111" stroke-width="2" fill="none" stroke-linecap="round"/>
</svg>
